# xmcd
# Track frame offsets:
# 150
# 12328
# 31256
# 46798
# 64736
# 78342
# 95117
# 106751
# 121833
# 140628
#
# Disc length: 2086 seconds
# Revision: 0
# Processed by: cddbd v1.4PL0 Copyright (c) Steve Scherf et al.
# Submitted via: VisiTrax 2.9.5.180 - For more info visit www.synapsa.com
#
DISCID=7a08240a
DTITLE=Lynn Stokes - The shots you never take
DYEAR=2002
DGENRE=Country
TTITLE0=Nobody's my wife
TTITLE1=Foot lights
TTITLE2=I'm blue over you
TTITLE3=Rebel soldier
TTITLE4=The shots you never take
TTITLE5=The men in Nashville
TTITLE6=Over night male
TTITLE7=Baby don't cry
TTITLE8=Left holdin' nothin'
TTITLE9=Eleven roses
EXTD=1099.01
EXTT0=
EXTT1=
EXTT2=
EXTT3=
EXTT4=
EXTT5=
EXTT6=
EXTT7=
EXTT8=
EXTT9=
PLAYORDER=
